<?xml version="1.0" standalone="no"?>
<!DOCTYPE svg PUBLIC "-//W3C//DTD SVG 20010904//EN"
 "http://www.w3.org/TR/2001/REC-SVG-20010904/DTD/svg10.dtd">
<svg version="1.0" xmlns="http://www.w3.org/2000/svg"
 width="357.000000pt" height="188.000000pt" viewBox="0 0 357.000000 188.000000"
 preserveAspectRatio="xMidYMid meet">
<metadata>
Created by potrace 1.16, written by Peter Selinger 2001-2019
</metadata>
<g transform="translate(0.000000,188.000000) scale(0.100000,-0.100000)"
fill="#502E2E" stroke="none">
<path d="M1825 1818 c-28 -16 -35 -28 -35 -63 0 -36 8 -48 37 -64 49 -25 98 0
109 56 11 58 -57 102 -111 71z"/>
<path d="M1665 1671 c-77 -22 -101 -107 -46 -162 87 -87 229 34 149 126 -25
28 -72 45 -103 36z m88 -42 c41 -50 5 -129 -60 -129 -63 0 -106 75 -70 121 34
43 97 47 130 8z"/>
<path d="M1865 1496 c-46 -20 -67 -51 -73 -104 -8 -86 49 -152 131 -152 78 0
137 58 137 135 0 101 -100 163 -195 121z m147 -45 c51 -57 31 -153 -38 -186
-43 -20 -87 -10 -130 30 -27 26 -34 40 -34 71 0 43 26 91 62 111 39 23 108 10
140 -26z"/>
<path d="M1353 1385 c-51 -22 -65 -54 -71 -160 -6 -111 -2 -117 77 -152 261
-116 566 -106 778 26 l43 26 0 73 c0 92 -16 158 -43 177 -33 23 -44 18 -52
-22 -34 -187 -302 -184 -323 3 l-5 44 -186 0 c-135 -1 -195 -5 -218 -15z"/>
<path d="M1160 1132 c0 -4 -22 -34 -50 -67 -84 -101 -87 -166 -10 -259 22 -27
39 -54 37 -60 -2 -5 -17 -14 -35 -18 -40 -11 -89 -60 -97 -99 -13 -57 37 -62
87 -9 61 65 21 62 633 61 610 0 580 3 629 -59 33 -42 96 -52 96 -15 0 8 -10
32 -21 53 -20 35 -46 54 -107 77 -22 8 -21 9 23 63 57 69 70 114 52 169 -15
43 -104 173 -115 168 -4 -1 -63 -31 -132 -65 -171 -86 -249 -105 -420 -105
-171 0 -246 19 -428 108 -142 69 -142 69 -142 57z"/>
<path d="M227 696 c-115 -43 -176 -133 -177 -262 0 -81 19 -132 81 -216 29
-38 58 -86 65 -106 l12 -37 69 1 c53 0 79 6 121 28 91 46 135 102 156 199 4
15 13 27 21 27 8 0 15 7 15 15 0 12 -19 15 -110 15 -91 0 -110 -3 -110 -15 0
-8 7 -15 15 -15 23 0 19 -85 -6 -136 -25 -52 -81 -104 -113 -104 -22 0 -23 3
-19 43 3 25 -6 94 -22 172 -21 100 -26 147 -22 206 7 107 33 153 94 165 24 5
37 0 63 -23 27 -24 33 -38 38 -81 4 -43 2 -52 -12 -52 -9 0 -16 -8 -16 -20 0
-19 7 -20 110 -20 101 0 110 2 110 19 0 10 -8 21 -19 24 -10 2 -21 17 -25 33
-11 46 -53 99 -98 124 -52 29 -164 37 -221 16z"/>
<path d="M2857 704 c-12 -12 -7 -68 8 -88 8 -11 15 -34 15 -50 1 -71 38 -74
57 -4 18 67 52 95 118 100 l55 3 0 -272 0 -273 -35 0 c-25 0 -35 -4 -35 -15 0
-13 31 -15 238 -13 l237 3 3 132 c3 154 7 148 -103 155 -68 5 -121 24 -157 56
-15 13 -18 33 -18 118 l0 103 37 3 c27 2 39 8 41 21 3 16 -11 17 -196 17 -110
0 -212 3 -228 6 -16 3 -32 2 -37 -2z m533 -471 c0 -108 -4 -113 -94 -113 l-56
0 0 138 0 138 75 -36 75 -35 0 -92z"/>
<path d="M2728 475 c-20 -13 -60 -60 -89 -102 l-52 -78 7 98 6 98 -52 -3 -53
-3 0 -195 0 -195 51 -3 51 -3 -5 97 -5 97 32 -19 c39 -23 71 -72 86 -132 l12
-44 54 -1 c44 -1 54 2 57 17 10 50 -80 150 -157 176 -23 7 -41 19 -41 27 0 21
87 103 109 103 10 0 24 -7 31 -15 20 -24 28 -18 35 25 4 22 11 42 16 46 5 3 9
12 9 20 0 23 -61 17 -102 -11z"/>
<path d="M676 474 c-3 -9 -6 -91 -6 -184 0 -93 3 -175 6 -184 4 -12 20 -16 56
-16 l50 0 -7 125 c-4 68 -4 154 0 190 l7 65 66 0 67 0 -3 -152 c-2 -84 0 -169
5 -188 9 -34 11 -35 62 -38 l52 -3 -8 53 c-9 71 -10 252 0 306 l7 42 -174 0
c-149 0 -175 -2 -180 -16z"/>
<path d="M1134 478 c-9 -14 -7 -364 1 -378 4 -6 28 -10 56 -10 l49 0 -6 98 -7
99 77 46 76 47 0 -120 c0 -153 6 -170 62 -170 l43 0 0 200 0 201 -50 -3 c-50
-3 -50 -3 -55 -40 -5 -34 -12 -42 -79 -83 l-74 -46 7 86 6 85 -49 0 c-28 0
-53 -5 -57 -12z"/>
<path d="M1603 478 c-10 -16 -17 -330 -9 -364 l6 -24 168 0 c117 0 172 4 180
12 7 7 12 30 12 51 0 54 -52 106 -139 138 -59 21 -62 24 -40 32 85 34 111 52
126 83 13 27 14 39 5 59 l-12 25 -144 0 c-105 0 -147 -3 -153 -12z m168 -202
c46 -31 75 -90 63 -125 -10 -28 -55 -44 -108 -39 l-31 3 -3 93 c-3 90 -2 92
20 92 13 0 40 -11 59 -24z"/>
<path d="M2196 462 c5 -23 -4 -38 -56 -97 -34 -39 -71 -87 -81 -107 -64 -124
45 -235 145 -147 19 17 41 46 48 65 6 19 15 34 19 34 3 0 12 -27 20 -60 l13
-60 57 0 56 0 -32 98 c-18 53 -43 143 -56 199 l-24 103 -57 0 c-57 0 -57 0
-52 -28z m56 -199 c2 -42 -26 -73 -67 -73 -40 0 -55 16 -55 57 0 37 19 80 59
132 l25 34 19 -59 c10 -33 19 -73 19 -91z"/>
</g>
</svg>
