<?xml version="1.0" standalone="no"?>
<!DOCTYPE svg PUBLIC "-//W3C//DTD SVG 20010904//EN"
 "http://www.w3.org/TR/2001/REC-SVG-20010904/DTD/svg10.dtd">
<svg version="1.0" xmlns="http://www.w3.org/2000/svg"
 width="1280.000000pt" height="674.000000pt" viewBox="0 0 1280.000000 674.000000"
 preserveAspectRatio="xMidYMid meet">
<metadata>
Created by potrace 1.16, written by Peter Selinger 2001-2019
</metadata>
<g transform="translate(0.000000,674.000000) scale(0.100000,-0.100000)"
fill="#502E2E" stroke="none">
<path d="M6549 6538 c-34 -18 -76 -50 -92 -71 -28 -34 -31 -46 -35 -125 -7
-150 24 -207 141 -263 75 -35 159 -39 222 -10 124 56 196 243 137 356 -47 92
-136 144 -244 145 -56 0 -76 -5 -129 -32z m241 -29 c110 -62 134 -217 47 -315
-16 -19 -44 -42 -60 -51 -68 -35 -180 -9 -245 57 -41 41 -52 68 -52 127 0 85
67 179 145 203 44 14 120 4 165 -21z"/>
<path d="M5953 6005 c-95 -29 -180 -102 -224 -191 -34 -70 -35 -207 -1 -276
76 -153 246 -243 394 -208 169 40 287 169 296 322 7 119 -44 217 -149 287
-107 71 -223 96 -316 66z m248 -80 c52 -27 104 -82 127 -134 9 -22 15 -64 15
-106 0 -112 -49 -198 -142 -253 -40 -24 -56 -27 -131 -27 -98 0 -140 17 -207
84 -104 104 -119 253 -36 350 94 111 253 147 374 86z"/>
<path d="M6785 5417 c-221 -57 -340 -195 -360 -417 -18 -211 82 -398 262 -487
67 -33 83 -37 176 -41 75 -3 119 0 167 12 182 47 324 207 350 397 31 225 -91
436 -300 519 -69 27 -221 36 -295 17z m188 -72 c191 -40 304 -151 338 -331 29
-156 -50 -341 -185 -429 -168 -110 -356 -76 -527 94 -85 86 -109 136 -109 231
0 163 111 356 237 412 86 38 149 44 246 23z"/>
<path d="M5190 5029 c-274 -12 -379 -41 -462 -125 -89 -89 -120 -225 -134
-589 -12 -300 10 -332 316 -463 584 -250 1229 -331 1825 -231 343 57 629 163
940 347 72 42 133 81 137 87 11 15 10 283 -2 431 -17 209 -55 352 -114 429
-32 42 -120 89 -151 81 -31 -8 -49 -42 -74 -147 -66 -266 -246 -433 -508 -469
-183 -25 -357 32 -484 159 -111 111 -142 191 -174 454 l-6 47 -467 -2 c-257 0
-546 -5 -642 -9z"/>
<path d="M4148 4062 c-10 -20 -72 -104 -138 -187 -200 -250 -251 -349 -258
-506 -7 -156 27 -239 177 -439 159 -212 168 -230 119 -260 -18 -11 -61 -29
-96 -41 -124 -41 -262 -160 -318 -276 -38 -77 -45 -177 -16 -213 17 -20 29
-25 69 -25 75 0 134 36 253 156 149 149 183 160 540 180 284 15 3437 7 3580
-10 212 -25 265 -49 357 -162 113 -141 271 -203 349 -138 55 45 -63 301 -180
389 -46 35 -144 85 -263 135 -58 24 -56 44 12 130 197 252 238 317 270 429 22
76 16 198 -14 277 -58 153 -343 571 -398 585 -16 5 -115 -40 -360 -161 -599
-296 -790 -365 -1158 -417 -126 -18 -816 -18 -945 0 -325 46 -561 126 -1044
359 -343 165 -492 233 -508 233 -7 0 -21 -17 -30 -38z"/>
<path d="M970 2549 c-182 -22 -368 -115 -513 -256 -198 -193 -290 -459 -274
-792 12 -235 78 -408 244 -636 173 -238 253 -376 294 -504 l24 -74 215 6 c253
6 307 18 465 100 246 129 385 261 474 451 36 76 47 108 85 246 19 69 39 97 81
114 18 8 38 23 44 34 32 59 -74 76 -447 70 -298 -5 -335 -12 -330 -57 2 -19
14 -32 42 -46 21 -11 43 -31 48 -45 14 -36 3 -245 -16 -315 -39 -141 -126
-277 -247 -389 -39 -34 -91 -73 -117 -86 -47 -24 -132 -33 -149 -17 -4 5 -8
79 -9 165 -1 168 -23 335 -84 628 -59 285 -74 404 -73 594 2 342 64 550 193
643 45 32 147 67 197 67 50 0 107 -30 178 -94 96 -85 135 -193 135 -370 0 -83
-5 -94 -46 -102 -19 -3 -39 -15 -44 -25 -15 -27 -12 -76 5 -92 22 -23 152 -30
447 -25 271 5 317 12 319 47 4 54 -14 82 -72 112 -26 13 -44 34 -63 71 -14 28
-26 58 -26 65 0 25 -61 143 -104 200 -92 123 -200 211 -315 254 -136 51 -400
79 -561 58z"/>
<path d="M10263 2554 c-60 -14 -56 -208 8 -322 32 -57 59 -155 59 -217 0 -57
17 -111 45 -142 23 -27 25 -27 52 -13 41 23 69 72 103 178 35 109 50 139 96
204 73 99 188 144 397 155 l127 6 0 -975 0 -976 -109 -4 c-113 -3 -141 -13
-141 -49 0 -12 11 -24 28 -31 37 -16 615 -22 1209 -13 l461 7 6 92 c4 50 7
242 9 426 2 359 -2 400 -47 445 -34 34 -81 45 -271 61 -93 8 -207 23 -253 34
-163 39 -304 109 -370 185 -44 50 -52 118 -52 468 l0 307 23 4 c12 3 54 7 93
10 87 6 140 27 156 61 30 67 -32 74 -672 75 -403 1 -733 10 -885 24 -27 2 -60
2 -72 0z m1630 -1246 l257 -122 0 -280 c0 -290 -5 -341 -37 -385 -41 -56 -80
-65 -295 -69 l-198 -4 0 491 c0 270 3 491 8 491 4 0 123 -55 265 -122z"/>
<path d="M9940 1796 c-172 -48 -303 -178 -552 -550 -125 -186 -116 -196 -94
104 8 107 18 248 21 314 l7 119 -98 -7 c-55 -3 -138 -9 -186 -12 l-88 -6 0
-698 0 -698 88 -6 c48 -3 129 -8 180 -12 l92 -6 0 25 c0 14 -7 156 -16 316 -8
160 -14 304 -12 321 l3 29 75 -45 c124 -74 225 -193 287 -339 12 -27 38 -106
58 -175 19 -68 41 -128 48 -132 18 -11 286 -9 329 2 21 6 42 19 48 30 45 85
-49 270 -221 435 -105 100 -205 167 -317 212 -153 61 -177 85 -147 144 22 41
174 199 245 254 119 91 160 94 241 19 33 -32 55 -45 70 -42 25 3 27 8 69 178
11 47 31 101 44 120 37 54 40 76 17 99 -17 17 -33 21 -83 20 -35 0 -83 -6
-108 -13z"/>
<path d="M2615 1770 c-120 -7 -179 -22 -190 -48 -4 -9 -12 -165 -18 -346 -10
-325 1 -936 18 -979 16 -38 62 -49 222 -55 l153 -5 0 54 c0 30 -7 162 -15 294
-20 319 -18 688 3 875 l17 145 237 3 236 2 -5 -527 c-4 -345 -2 -560 5 -620
13 -112 40 -179 77 -193 30 -12 324 -34 332 -26 3 3 -2 61 -11 128 -29 210
-41 628 -27 893 6 126 18 264 26 305 8 41 14 83 14 93 1 16 -28 17 -481 15
-266 -1 -532 -4 -593 -8z"/>
<path d="M4160 1769 c-88 -15 -97 -25 -105 -121 -4 -46 -5 -342 -3 -658 3
-634 2 -620 65 -634 39 -9 298 -20 315 -14 11 5 11 48 -3 279 -10 151 -20 308
-24 350 l-7 76 244 148 c133 81 257 156 275 167 l31 19 5 -423 c5 -442 9 -488
51 -550 33 -50 67 -61 199 -66 l117 -4 0 722 0 722 -87 -6 c-212 -15 -225 -18
-248 -41 -16 -15 -26 -44 -35 -96 -17 -100 -39 -139 -107 -192 -64 -49 -433
-280 -439 -275 -2 2 3 82 11 178 7 96 17 232 21 303 l7 127 -114 -1 c-63 -1
-139 -5 -169 -10z"/>
<path d="M5950 1770 c-151 -9 -187 -16 -200 -40 -18 -33 -29 -196 -41 -585
-12 -397 -6 -668 15 -751 l12 -49 340 -3 c366 -3 806 11 867 28 48 14 63 39
78 126 13 83 3 149 -36 230 -27 54 -124 156 -195 205 -68 46 -204 112 -305
149 -106 38 -145 57 -145 69 0 5 35 24 78 41 264 109 368 183 424 298 42 88
42 137 0 225 l-31 67 -368 -2 c-202 0 -424 -4 -493 -8z m389 -100 c52 -7 71
-15 95 -40 27 -26 31 -37 30 -83 -1 -116 -101 -250 -224 -299 -36 -14 -84 -29
-107 -33 l-43 -7 0 59 c0 87 20 395 26 404 7 12 142 11 223 -1z m-99 -604
c131 -52 244 -158 304 -286 24 -51 31 -81 34 -140 4 -90 -13 -125 -80 -164
-77 -45 -158 -59 -292 -53 -65 3 -120 8 -123 11 -10 9 -24 556 -16 597 14 73
56 82 173 35z"/>
<path d="M7901 1769 l-34 -10 7 -72 c6 -63 4 -76 -19 -121 -13 -28 -61 -94
-105 -146 -256 -302 -348 -427 -392 -532 -109 -259 5 -541 233 -577 181 -29
371 109 490 357 27 56 53 102 57 102 5 0 14 -11 20 -25 14 -30 63 -216 87
-327 l17 -78 199 0 c144 0 199 3 199 12 0 6 -34 115 -76 242 -115 350 -195
644 -306 1121 l-14 60 -164 2 c-91 1 -180 -3 -199 -8z m89 -429 c57 -188 80
-297 80 -385 0 -83 -13 -123 -55 -173 -47 -56 -98 -77 -190 -77 -98 1 -136 19
-166 83 -18 37 -21 56 -17 135 7 143 60 259 219 473 39 53 74 92 79 88 4 -5
27 -70 50 -144z"/>
</g>
</svg>
