<svg width="24" height="24" viewBox="0 0 24 24" fill="none" xmlns="http://www.w3.org/2000/svg">
<path d="M8.81998 19.79C8.72701 19.6962 8.61641 19.6218 8.49455 19.5711C8.37269 19.5203 8.24199 19.4942 8.10998 19.4942C7.97796 19.4942 7.84726 19.5203 7.7254 19.5711C7.60354 19.6218 7.49294 19.6962 7.39998 19.79L6.10998 21.08L4.81998 19.79C4.64324 19.6129 4.40656 19.5085 4.15664 19.4974C3.90673 19.4863 3.66172 19.5693 3.46998 19.73L0.469976 22.23C0.368717 22.3139 0.285015 22.417 0.223663 22.5334C0.162311 22.6497 0.124515 22.777 0.112439 22.908C0.100363 23.039 0.114245 23.171 0.153289 23.2966C0.192334 23.4223 0.255774 23.5389 0.339976 23.64C0.423925 23.7412 0.527025 23.8249 0.643373 23.8863C0.75972 23.9476 0.887027 23.9854 1.018 23.9975C1.14898 24.0096 1.28105 23.9957 1.40666 23.9567C1.53226 23.9176 1.64893 23.8542 1.74998 23.77L4.04998 21.85L5.39998 23.21C5.49294 23.3037 5.60354 23.3781 5.7254 23.4289C5.84726 23.4796 5.97796 23.5058 6.10998 23.5058C6.24199 23.5058 6.37269 23.4796 6.49455 23.4289C6.61641 23.3781 6.72701 23.3037 6.81998 23.21L8.10998 21.91L8.89998 22.71C9.08828 22.8983 9.34367 23.0041 9.60998 23.0041C9.87628 23.0041 10.1317 22.8983 10.32 22.71C10.5083 22.5217 10.6141 22.2663 10.6141 22C10.6141 21.7337 10.5083 21.4783 10.32 21.29L8.81998 19.79ZM23.78 3.35997C23.5644 2.62729 23.0685 2.00922 22.4 1.63997L19.49 0.0699698C19.374 0.0078058 19.2385 -0.00713327 19.1118 0.0282747C18.9851 0.0636827 18.8769 0.146698 18.81 0.25997L10.81 14.72C10.76 14.8417 10.76 14.9782 10.81 15.1C10.8487 15.2269 10.9346 15.3343 11.05 15.4L13.53 16.77C13.6037 16.8098 13.6862 16.8304 13.77 16.83C13.8601 16.8313 13.9489 16.8078 14.0266 16.7619C14.1042 16.716 14.1677 16.6496 14.21 16.57L21.46 3.39997C21.6502 3.51867 21.7893 3.70411 21.85 3.91997C21.8834 4.03069 21.8945 4.14698 21.8825 4.26202C21.8704 4.37706 21.8356 4.48855 21.78 4.58997L18.14 11.2C18.0762 11.3149 18.0357 11.4412 18.0208 11.5717C18.0059 11.7023 18.0169 11.8345 18.0531 11.9608C18.0894 12.0871 18.1501 12.205 18.2319 12.3078C18.3138 12.4106 18.415 12.4963 18.53 12.56C18.6449 12.6237 18.7712 12.6642 18.9017 12.6791C19.0323 12.694 19.1645 12.683 19.2908 12.6468C19.4171 12.6106 19.535 12.5498 19.6378 12.468C19.7406 12.3862 19.8263 12.2849 19.89 12.17L23.53 5.55997C23.901 4.88856 23.9909 4.09751 23.78 3.35997ZM13.1 17.54L10.62 16.18C10.5421 16.1362 10.4543 16.1132 10.365 16.1132C10.2756 16.1132 10.1878 16.1362 10.11 16.18C10.0359 16.2262 9.97556 16.2913 9.93512 16.3687C9.89469 16.446 9.87565 16.5328 9.87998 16.62L9.97998 19.37C9.98006 19.4572 10.0044 19.5427 10.0504 19.6169C10.0963 19.6911 10.1619 19.751 10.24 19.79C10.3148 19.832 10.3992 19.8541 10.485 19.8541C10.5708 19.8541 10.6552 19.832 10.73 19.79L13.11 18.4C13.1858 18.3575 13.2484 18.2948 13.2908 18.2189C13.3332 18.143 13.3537 18.0568 13.35 17.97C13.3475 17.8831 13.3234 17.7983 13.2797 17.7231C13.2361 17.648 13.1743 17.5851 13.1 17.54Z" fill="white"/>
</svg>
